<svg xmlns="http://www.w3.org/2000/svg" viewBox="0 0 307.565 307.565">
  <g id="Capa_2" data-name="Capa 2">
    <g id="Capa_1-2" data-name="Capa 1">
      <g>
        <circle cx="153.782" cy="153.782" r="153.782" fill="#fff"/>
        <path d="M93.723,262.04q-10.671-11.8-10.672-37.748V201.224q0-14.55-5.762-20.578t-19.423-6.16v-36.57q13.658-.127,19.423-6.16t5.762-20.577V87.716q0-25.684,10.566-37.289t34.47-11.6h7.9V66.747h-4.7q-10.137,0-14.352,5.765t-4.217,19.662V121.4q0,14.284-7.15,22.541t-20.81,10.094v4.326q13.658,1.706,20.81,10.027T112.719,191v29.491q0,13.891,4.27,19.726t14.3,5.833h4.7v27.786h-7.9Q104.395,273.836,93.723,262.04Z" fill="#333"/>
        <path d="M217.8,53.1q10.672,11.8,10.672,37.748v23.068q0,14.55,5.763,20.578t19.423,6.16v36.57q-13.658.128-19.423,6.16t-5.763,20.577v23.463q0,25.686-10.566,37.289t-34.47,11.6h-7.9V248.394h4.7q10.137,0,14.353-5.765t4.216-19.662V193.738q0-14.284,7.15-22.541t20.81-10.094v-4.326q-13.658-1.706-20.81-10.027t-7.15-22.609V94.65q0-13.892-4.269-19.726t-14.3-5.833h-4.7V41.305h7.9Q207.128,41.305,217.8,53.1Z" fill="#333"/>
      </g>
    </g>
  </g>
</svg>
