<svg xmlns="http://www.w3.org/2000/svg" viewBox="0 0 1066.311 232.116">
  <g id="Capa_2" data-name="Capa 2">
    <g id="Capa_1-2" data-name="Capa 1">
      <g>
        <g>
          <path d="M116.152,31.894H184.4q24.227,0,41.428,8.957a60.817,60.817,0,0,1,26.329,26.438q9.125,17.483,9.125,43.033v.224q0,25.548-9.125,43.693a63.576,63.576,0,0,1-26.329,27.709q-17.2,9.571-41.428,9.57H116.152Zm61.615,122.345q11.727,0,19.691-4.812a29.625,29.625,0,0,0,12-14.494q4.037-9.672,4.037-24.387v-.224q0-13.383-4.258-22.568A30.385,30.385,0,0,0,196.96,73.873q-8.022-4.7-19.193-4.7H163.055v85.066Z" fill="#fff"/>
          <path d="M303.545,186.542a52.519,52.519,0,0,1-21.958-21.962q-7.691-14.319-7.689-34.125v-.109q0-19.913,7.633-34.129a52.774,52.774,0,0,1,21.625-21.846q13.993-7.633,33.022-7.633T369.2,74.262A53.23,53.23,0,0,1,390.878,95.5q7.69,13.72,7.689,32.3v12.833H296.021V114.969H377.55l-20.907,24.116V121.606a30.985,30.985,0,0,0-2.379-12.721,18.4,18.4,0,0,0-6.693-8.133,19.768,19.768,0,0,0-20.354,0,18.383,18.383,0,0,0-6.693,8.133,30.936,30.936,0,0,0-2.379,12.721v17.7a30.349,30.349,0,0,0,2.435,12.721,18.189,18.189,0,0,0,6.97,8.134,20.344,20.344,0,0,0,10.951,2.82,22.679,22.679,0,0,0,9.956-1.937,19.848,19.848,0,0,0,6.249-4.479,13.012,13.012,0,0,0,2.821-4.314l.112-.333h40.374l-.33,1.44a53.989,53.989,0,0,1-4.979,13,49.6,49.6,0,0,1-10.51,13.384,52.616,52.616,0,0,1-17.753,10.4q-10.9,4.038-26.826,4.04Q317.814,194.174,303.545,186.542Z" fill="#fff"/>
          <path d="M398.346,69.391h48.9l17.7,85.513h.887l17.147-85.513h47.456L491.268,191.518H438.06Z" fill="#fff"/>
          <path d="M568.98,188.644q-15.1-5.751-23.563-16.761t-9.346-26.714l-.112-2.1H579.1l.221,1a14.112,14.112,0,0,0,4.647,7.521,26.092,26.092,0,0,0,9.181,5.035,38.675,38.675,0,0,0,12.168,1.826,36.569,36.569,0,0,0,12.114-1.773,18.35,18.35,0,0,0,7.8-4.865,10.33,10.33,0,0,0,2.765-7.079v-.111q0-5.646-5.418-8.519t-18.7-5.31l-16.04-2.877q-23.785-4.2-36.449-16.039T538.724,81.449v-.108q0-16.042,8.463-27.769t23.286-18.139q14.825-6.412,33.74-6.419,21.348,0,35.952,5.977T662.509,51.97q7.743,11.008,8.407,25.94l.112,2.435H627.885l-.111-1.107a12.4,12.4,0,0,0-3.484-7.58,20.448,20.448,0,0,0-8.074-4.92,34.391,34.391,0,0,0-11.452-1.77,29.654,29.654,0,0,0-10.783,1.714,14.707,14.707,0,0,0-6.585,4.647,10.649,10.649,0,0,0-2.211,6.581v.109q0,5.424,5.421,8.354t17.368,5.144l16.039,2.874q25.663,4.647,38.054,15.6t12.388,30.419v.111q0,16.485-8.239,28.6t-23.84,18.7q-15.6,6.581-37.612,6.578Q584.079,194.392,568.98,188.644Z" fill="#fff"/>
          <path d="M689.391,69.391h45.354V191.518H689.391Zm6.69-17.368a20.629,20.629,0,0,1-6.469-15.153,20.585,20.585,0,0,1,6.469-15.212,23.268,23.268,0,0,1,31.97,0,21.042,21.042,0,0,1,0,30.365,23.11,23.11,0,0,1-31.97,0Z" fill="#fff"/>
          <path d="M773.85,185.158q-11.118-9.015-11.116-30.587V102.136H746.582V69.391h16.152V42.624h45.353V69.391h21.461v32.745H808.087V147.6q0,7.413,3.375,10.619t10.342,3.21q2.544,0,4.261-.165t3.483-.389v31.638q-3.652.661-8.684,1.16t-12.223.5Q784.967,194.174,773.85,185.158Z" fill="#fff"/>
          <path d="M871.03,186.542a52.522,52.522,0,0,1-21.959-21.962q-7.689-14.319-7.688-34.125v-.109q0-19.913,7.632-34.129a52.776,52.776,0,0,1,21.626-21.846q13.994-7.633,33.021-7.633t33.019,7.524A53.23,53.23,0,0,1,958.363,95.5q7.689,13.72,7.688,32.3v12.833H863.506V114.969h81.529l-20.907,24.116V121.606a30.985,30.985,0,0,0-2.379-12.721,18.411,18.411,0,0,0-6.694-8.133,19.766,19.766,0,0,0-20.353,0,18.383,18.383,0,0,0-6.693,8.133,30.919,30.919,0,0,0-2.38,12.721v17.7a30.349,30.349,0,0,0,2.435,12.721,18.185,18.185,0,0,0,6.971,8.134,20.342,20.342,0,0,0,10.951,2.82,22.679,22.679,0,0,0,9.956-1.937,19.831,19.831,0,0,0,6.248-4.479,13,13,0,0,0,2.821-4.314l.112-.333H965.5l-.329,1.44a54.037,54.037,0,0,1-4.98,13,49.571,49.571,0,0,1-10.509,13.384,52.612,52.612,0,0,1-17.754,10.4q-10.9,4.038-26.826,4.04Q885.3,194.174,871.03,186.542Z" fill="#fff"/>
        </g>
        <path d="M35.474,220.526q-10.56-11.591-10.559-37.085V160.776q0-14.293-5.7-20.218T0,134.5V98.576q13.516-.124,19.214-6.052t5.7-20.218V49.255q0-25.238,10.453-36.637t34.1-11.4H77.28v27.43H72.636q-10.03,0-14.2,5.665T54.264,53.634V82.351q0,14.037-7.073,22.149t-20.586,9.915v4.249q13.512,1.678,20.586,9.853t7.073,22.215V179.7q0,13.648,4.226,19.382t14.146,5.73H77.28v27.3H69.468Q46.031,232.116,35.474,220.526Z" fill="#fff"/>
        <path d="M1030.837,11.59q10.56,11.591,10.559,37.085V71.34q0,14.293,5.7,20.219t19.214,6.054v35.928q-13.516.123-19.214,6.051t-5.7,20.218v23.051q0,25.239-10.453,36.637t-34.1,11.4h-7.812V203.465h4.644q10.031,0,14.2-5.666t4.173-19.317V149.766q0-14.037,7.073-22.15t20.586-9.915v-4.249q-13.512-1.678-20.586-9.853t-7.073-22.214V52.412q0-13.648-4.226-19.382T993.675,27.3h-4.644V0h7.812Q1020.281,0,1030.837,11.59Z" fill="#fff"/>
      </g>
    </g>
  </g>
</svg>
