<svg xmlns="http://www.w3.org/2000/svg" viewBox="0 0 741.061 397.203">
  <g id="Capa_2" data-name="Capa 2">
    <g id="Capa_1-2" data-name="Capa 1">
      <g>
        <g>
          <path d="M166.02,29.307h68.252q24.227,0,41.428,8.96a60.807,60.807,0,0,1,26.329,26.438q9.125,17.48,9.125,43.032v.222q0,25.553-9.125,43.694A63.58,63.58,0,0,1,275.7,179.364q-17.2,9.57-41.428,9.569H166.02Zm61.615,122.346q11.727,0,19.691-4.811a29.616,29.616,0,0,0,12-14.492q4.037-9.678,4.037-24.391v-.222q0-13.385-4.258-22.567a30.4,30.4,0,0,0-12.279-13.883q-8.022-4.7-19.193-4.7H212.923v85.067Z" fill="#fff"/>
          <path d="M353.413,183.955A52.523,52.523,0,0,1,331.455,162q-7.69-14.323-7.689-34.127v-.11q0-19.913,7.633-34.126a52.779,52.779,0,0,1,21.625-21.848q13.994-7.632,33.022-7.632t33.018,7.522a53.247,53.247,0,0,1,21.682,21.238q7.691,13.719,7.689,32.3v12.832H345.889V112.383h81.529L406.511,136.5V119.021a30.988,30.988,0,0,0-2.379-12.721,18.389,18.389,0,0,0-6.693-8.132,19.768,19.768,0,0,0-20.354,0,18.369,18.369,0,0,0-6.693,8.132,30.939,30.939,0,0,0-2.379,12.721v17.7a30.333,30.333,0,0,0,2.435,12.721,18.2,18.2,0,0,0,6.97,8.132,20.327,20.327,0,0,0,10.951,2.821,22.708,22.708,0,0,0,9.956-1.936,19.881,19.881,0,0,0,6.249-4.48,13.012,13.012,0,0,0,2.821-4.314l.112-.333h40.374l-.33,1.438a53.973,53.973,0,0,1-4.979,13,49.569,49.569,0,0,1-10.51,13.385,52.636,52.636,0,0,1-17.753,10.4q-10.9,4.038-26.826,4.037Q367.682,191.587,353.413,183.955Z" fill="#fff"/>
          <path d="M448.214,66.807h48.9l17.7,85.51h.887l17.146-85.51H580.3L541.136,188.933H487.928Z" fill="#fff"/>
        </g>
        <g>
          <path d="M189.545,366.052q-15.1-5.751-23.563-16.759t-9.346-26.715l-.112-2.1h43.142l.221,1a14.1,14.1,0,0,0,4.647,7.522,26.033,26.033,0,0,0,9.181,5.033,38.644,38.644,0,0,0,12.167,1.826A36.654,36.654,0,0,0,238,334.083a18.363,18.363,0,0,0,7.8-4.868,10.323,10.323,0,0,0,2.765-7.079v-.11q0-5.643-5.418-8.519t-18.7-5.309l-16.039-2.877q-23.786-4.2-36.449-16.04T159.289,258.86v-.111q0-16.038,8.463-27.765t23.286-18.142q14.824-6.414,33.74-6.416,21.348,0,35.952,5.974t22.344,16.979q7.743,11.01,8.407,25.941l.112,2.434H248.45l-.111-1.106a12.4,12.4,0,0,0-3.484-7.578,20.428,20.428,0,0,0-8.074-4.922,34.446,34.446,0,0,0-11.452-1.77,29.675,29.675,0,0,0-10.783,1.714,14.73,14.73,0,0,0-6.585,4.647,10.653,10.653,0,0,0-2.211,6.581v.111q0,5.421,5.421,8.352t17.368,5.145l16.039,2.875q25.664,4.647,38.054,15.6t12.388,30.42v.112q0,16.484-8.239,28.6t-23.84,18.7q-15.6,6.577-37.612,6.581Q204.644,371.805,189.545,366.052Z" fill="#fff"/>
          <path d="M309.956,246.8h45.353V368.929H309.956Zm6.69-17.368a21.051,21.051,0,0,1,0-30.365,23.265,23.265,0,0,1,31.97,0,21.042,21.042,0,0,1,0,30.365,23.118,23.118,0,0,1-31.97,0Z" fill="#fff"/>
          <path d="M394.415,362.568Q383.3,353.553,383.3,331.982V279.546H367.147V246.8H383.3v-26.77h45.354V246.8h21.461v32.743H428.652v45.466q0,7.411,3.375,10.62t10.342,3.208q2.544,0,4.26-.165t3.484-.389v31.638q-3.652.663-8.684,1.163t-12.223.5Q405.53,371.585,394.415,362.568Z" fill="#fff"/>
          <path d="M491.6,363.952a52.549,52.549,0,0,1-21.958-21.958q-7.691-14.327-7.688-34.129v-.11q0-19.912,7.632-34.126a52.781,52.781,0,0,1,21.626-21.848q13.992-7.633,33.021-7.633t33.019,7.522a53.247,53.247,0,0,1,21.681,21.239q7.691,13.719,7.689,32.3v12.833H484.074V292.379H565.6L544.7,316.494V299.016a30.978,30.978,0,0,0-2.38-12.721,18.386,18.386,0,0,0-6.693-8.131,19.766,19.766,0,0,0-20.353,0,18.375,18.375,0,0,0-6.694,8.131,30.945,30.945,0,0,0-2.379,12.721v17.7a30.352,30.352,0,0,0,2.435,12.721,18.2,18.2,0,0,0,6.97,8.132,20.322,20.322,0,0,0,10.952,2.821,22.681,22.681,0,0,0,9.956-1.938,19.859,19.859,0,0,0,6.248-4.479,13,13,0,0,0,2.821-4.314l.112-.332h40.374l-.329,1.438a54.075,54.075,0,0,1-4.98,13,49.6,49.6,0,0,1-10.509,13.384,52.629,52.629,0,0,1-17.754,10.4q-10.9,4.036-26.826,4.04Q505.866,371.585,491.6,363.952Z" fill="#fff"/>
        </g>
        <path d="M51.808,376.979q-15.418-19.92-15.421-63.752V274.268q0-24.571-8.324-34.755T0,229.11V167.35q19.736-.219,28.063-10.4t8.324-34.754V82.568q0-43.383,15.265-62.977T101.456,0h11.41V47.15h-6.784q-14.652,0-20.74,9.741T79.253,90.1v49.363q0,24.13-10.33,38.075T38.855,194.578v7.3q19.736,2.88,30.068,16.935T79.253,257v49.806q0,23.46,6.166,33.316t20.663,9.85h6.784V396.9h-11.41Q67.223,396.9,51.808,376.979Z" fill="#fff"/>
        <path d="M689.252,20.224q15.42,19.92,15.422,63.752v38.959q0,24.573,8.324,34.755t28.063,10.4v61.76q-19.736.219-28.063,10.4t-8.324,34.754v39.624q0,43.383-15.266,62.977t-49.8,19.591H628.2v-47.15h6.784q14.652,0,20.739-9.741t6.09-33.2V257.745q0-24.129,10.33-38.074t30.068-17.046v-7.3q-19.736-2.88-30.068-16.935T661.808,140.2V90.4q0-23.46-6.166-33.316T634.979,47.23H628.2V.3h11.41Q673.837.3,689.252,20.224Z" fill="#fff"/>
      </g>
    </g>
  </g>
</svg>
